<svg width="1921" height="387" viewBox="0 0 1921 387" fill="none" xmlns="http://www.w3.org/2000/svg">
<path d="M0 386.654V46.6316C795.951 204.333 1240.45 286.965 1921 64.6255L1918.52 386.654H0Z" fill="#333333"/>
<path d="M1494.03 153.354L1484.01 155.631C1456.35 200.533 1434.62 220.614 1392.92 254.007C1374.29 269.039 1365.47 278.897 1357.4 303.195C1354.35 330.062 1359.25 345.116 1367.42 371.967C1377.6 395.472 1377.86 388.226 1377.44 371.967C1384.72 336.656 1395.19 321.384 1426.63 303.195C1458.27 277.416 1473.92 260.854 1499.5 228.958C1506.49 202.465 1505.95 186.129 1494.03 153.354Z" fill="#2B2B2B" fill-opacity="0.85"/>
<path d="M1453.5 161.097L1360.59 175.671C1333.37 195.972 1320.45 208.62 1310.94 238.522C1308.99 270.606 1312.5 287.235 1325.06 315.037C1329.69 325.885 1330.59 324.023 1330.98 315.037C1335.93 269.322 1350.51 256.329 1381.54 238.522C1413.37 211.951 1428.9 194.779 1453.5 161.097Z" fill="#2B2B2B" fill-opacity="0.85"/>
<path d="M1284.98 246.72C1290.45 254.007 1288.63 246.72 1288.63 246.72C1290.59 212.921 1300.09 200.821 1318.23 180.225L1269.5 185.691C1271.08 209.435 1279.52 239.433 1284.98 246.72Z" fill="#2B2B2B" fill-opacity="0.85"/>
<path d="M1920.38 0.716187C1521.34 204.238 1199.58 218.365 530.509 146.529C1088.15 231.082 1394.85 231.827 1920.38 64.6254V0.716187Z" fill="#42AEB4"/>
</svg>
